<svg xmlns="http://www.w3.org/2000/svg" width="521" height="253" viewBox="0 0 521 253" fill="none">
    <g transform="translate(8 10)">
        <path d="M69.04 121.95C68.41 124.25 70.4 126.41 72.74 125.98L119.3 117.37C121.74 116.92 123.75 119.27 122.93 121.61L119.74 130.71C111.08 155.2 90.4 173.57 65.02 179.38C63.28 179.78 62.12 181.46 62.44 183.21L63.03 186.4C63.36 188.15 65.04 189.31 66.8 188.99L128.95 177.49C150.19 173.56 167.59 157.74 173.3 136.69L180.47 110.49C181.09 108.19 179.1 106.03 176.76 106.46L124.73 116.09L129.76 101.73C138.42 77.24 159.1 58.87 184.49 53.06C186.23 52.66 187.39 50.98 187.06 49.23L186.47 46.04C186.15 44.29 184.46 43.13 182.71 43.45L120.56 54.95C99.32 58.88 81.92 74.7 76.2 95.75L69.04 121.95Z"
              fill="#FFD500" fill-opacity=".45"/>
        <path d="M119.74 130.71L124.73 116.09L176.76 106.46C179.1 106.03 181.09 108.19 180.47 110.49L173.3 136.69C167.59 157.74 150.19 173.56 128.95 177.49L66.8 188.99C65.04 189.31 63.36 188.15 63.03 186.4L62.44 183.21C62.12 181.46 63.28 179.78 65.02 179.38C90.4 173.57 111.08 155.2 119.74 130.71Z"
              fill="#FF565D" fill-opacity=".45"/>
        <path d="M62.2 125.25C61.65 127.57 63.71 129.66 66.03 129.16L119.34 117.55C121.77 117.03 123.86 119.32 123.11 121.68L119.64 132.68C110.73 160.63 87.98 182.08 59.48 189.41C57.75 189.85 56.64 191.57 57.02 193.31L57.97 197.65C58.35 199.39 60.07 200.5 61.81 200.12L131.63 184.92C155.36 179.76 174.35 161.37 180.03 137.5L187.3 107.19C187.86 104.88 185.8 102.78 183.48 103.28L124.72 116.07L129.87 99.77C138.77 71.81 161.53 50.37 190.03 43.03C191.76 42.59 192.87 40.87 192.49 39.13L191.54 34.79C191.16 33.05 189.44 31.94 187.7 32.32L117.88 47.52C94.14 52.69 75.16 71.08 69.47 94.94L62.2 125.25Z"
              fill="#FFE97B"/>
        <path d="M119.64 132.68L124.72 116.07L183.48 103.28C185.8 102.78 187.86 104.88 187.3 107.19L180.03 137.5C174.35 161.37 155.36 179.76 131.63 184.92L61.81 200.12C60.07 200.5 58.35 199.39 57.97 197.65L57.02 193.31C56.64 191.57 57.75 189.85 59.48 189.41C87.98 182.08 110.73 160.63 119.64 132.68Z"
              fill="#F55D63"/>
        <path d="M56.14 129.98C55.7 132.32 57.85 134.32 60.15 133.7L119.42 117.82C121.81 117.18 124.01 119.37 123.37 121.77L119.97 134.64C111.59 166.04 87.48 190.95 56.27 200.46C54.57 200.98 53.54 202.74 54 204.46L55.45 209.85C55.91 211.57 57.68 212.6 59.4 212.13L135.94 191.63C161.84 184.69 181.82 163.41 186.83 136.8L193.36 102.46C193.81 100.12 191.66 98.12 189.36 98.74L124.71 116.06L129.54 97.8C137.92 66.4 162.03 41.49 193.23 31.99C194.94 31.47 195.96 29.7 195.5 27.98L194.06 22.59C193.6 20.87 191.83 19.84 190.1 20.31L113.57 40.81C87.67 47.75 67.69 69.03 62.67 95.64L56.14 129.98Z"
              fill="#FFD500"/>
        <path d="M119.97 134.64L124.71 116.06L189.36 98.74C191.66 98.12 193.81 100.12 193.36 102.46L186.83 136.8C181.82 163.41 161.84 184.69 135.94 191.63L59.4 212.13C57.68 212.6 55.91 211.57 55.45 209.85L54 204.46C53.54 202.74 54.57 200.98 56.27 200.46C87.48 190.95 111.59 166.04 119.97 134.64Z"
              fill="#ED1C22"/>
    </g>
    <text x="238" y="142" fill="#ED1C22" font-size="68" font-weight="700"
          font-family="Avenir Next, Helvetica Neue, Arial, sans-serif">ShellAtlas
    </text>
</svg>
